<svg width="12" height="13" viewBox="0 0 12 13" fill="none" xmlns="http://www.w3.org/2000/svg">
<rect y="0.5" width="12" height="12" rx="2" fill="#3498DB"/>
<g clip-path="url(#clip0_624_2373)">
<path d="M8.87411 4.441C9.04152 4.6119 9.04152 4.88807 8.87411 5.05897L5.44554 8.55897C5.27813 8.72987 5.00759 8.72987 4.84018 8.55897L3.12552 6.80897C2.95816 6.63807 2.95816 6.3619 3.12552 6.191C3.2929 6.0201 3.56424 6.0201 3.73165 6.191L5.1308 7.63065L8.26875 4.441C8.43616 4.26983 8.7067 4.26983 8.87411 4.441Z" fill="white"/>
</g>
<path d="M3.95108 5.94854C3.65756 5.65627 3.18269 5.65727 2.89042 5.95079C2.59815 6.2443 2.59916 6.71918 2.89267 7.01145L3.95108 5.94854ZM5.173 8.2237L4.6438 8.75515C4.78554 8.89629 4.97778 8.97496 5.17779 8.97368C5.37781 8.97241 5.56903 8.89128 5.70895 8.74835L5.173 8.2237ZM9.15185 5.23132C9.4416 4.93532 9.43654 4.46047 9.14055 4.17072C8.84455 3.88096 8.3697 3.88602 8.07995 4.18201L9.15185 5.23132ZM2.89267 7.01145L4.6438 8.75515L5.70221 7.69224L3.95108 5.94854L2.89267 7.01145ZM5.70895 8.74835L9.15185 5.23132L8.07995 4.18201L4.63705 7.69905L5.70895 8.74835Z" fill="white"/>
<defs>
<clipPath id="clip0_624_2373">
<rect width="6" height="7" fill="white" transform="translate(3 3)"/>
</clipPath>
</defs>
</svg>
