<svg width="24" height="24" viewBox="0 0 24 24" xmlns="http://www.w3.org/2000/svg">
  <g id="#icon">
    <path
      d="M3.24324 3.24324V7.78378H7.78378V3.24324H3.24324ZM0 2.91892C0 1.30684 1.30684 0 2.91892 0H8.10811C9.72018 0 11.027 1.30684 11.027 2.91892V8.10811C11.027 9.72018 9.72018 11.027 8.10811 11.027H2.91892C1.30684 11.027 0 9.72018 0 8.10811V2.91892Z"
      fill="currentColor" />
    <path
      d="M16.2161 3.24324V7.78378H20.7567V3.24324H16.2161ZM12.9729 2.91892C12.9729 1.30684 14.2797 0 15.8918 0H21.081C22.6931 0 23.9999 1.30684 23.9999 2.91892V8.10811C23.9999 9.72018 22.6931 11.027 21.081 11.027H15.8918C14.2797 11.027 12.9729 9.72018 12.9729 8.10811V2.91892Z"
      fill="currentColor" />
    <path
      d="M3.24324 16.2164V20.7569H7.78378V16.2164H3.24324ZM0 15.8921C0 14.28 1.30684 12.9731 2.91892 12.9731H8.10811C9.72018 12.9731 11.027 14.28 11.027 15.8921V21.0813C11.027 22.6933 9.72018 24.0002 8.10811 24.0002H2.91892C1.30684 24.0002 0 22.6933 0 21.0813V15.8921Z"
      fill="currentColor" />
    <path
      d="M16.2161 16.2164V20.7569H20.7567V16.2164H16.2161ZM12.9729 15.8921C12.9729 14.28 14.2797 12.9731 15.8918 12.9731H21.081C22.6931 12.9731 23.9999 14.28 23.9999 15.8921V21.0813C23.9999 22.6933 22.6931 24.0002 21.081 24.0002H15.8918C14.2797 24.0002 12.9729 22.6933 12.9729 21.0813V15.8921Z"
      fill="currentColor" />
  </g>
</svg>
