<svg width="12" height="13" viewBox="0 0 12 13" fill="none" xmlns="http://www.w3.org/2000/svg">
<rect y="0.5" width="12" height="12" rx="2" fill="#9B59B6"/>
<g clip-path="url(#clip0_624_2375)">
<path d="M6.63143 6.0625H8.08325C8.25643 6.0625 8.41268 6.17597 8.46216 6.3455C8.53377 6.5164 8.4882 6.70918 8.35799 6.82949L5.02466 9.89199C4.87752 10.026 4.66229 10.0369 4.505 9.9166C4.34758 9.79629 4.29028 9.57754 4.36698 9.39023L5.36841 6.9375H3.90487C3.74302 6.9375 3.58759 6.82402 3.52653 6.65449C3.46548 6.48359 3.51157 6.29082 3.64224 6.1705L6.97518 3.10825C7.12232 2.97375 7.33716 2.96351 7.49471 3.08359C7.65226 3.20371 7.70956 3.42205 7.63273 3.6099L6.63143 6.0625Z" fill="white"/>
</g>
<defs>
<clipPath id="clip0_624_2375">
<rect width="5" height="7" fill="white" transform="translate(3.5 3)"/>
</clipPath>
</defs>
</svg>
