<svg width="12" height="13" viewBox="0 0 12 13" fill="none" xmlns="http://www.w3.org/2000/svg">
<rect y="0.5" width="12" height="12" rx="2" fill="#58B7BD"/>
<path fill-rule="evenodd" clip-rule="evenodd" d="M4.75 7.75H3.08333C2.6231 7.75 2.25 7.3769 2.25 6.91667V3.58333C2.25 3.1231 2.6231 2.75 3.08333 2.75H6.41667C6.8769 2.75 7.25 3.1231 7.25 3.58333V5.25H9.03571C9.42969 5.25 9.75 5.56975 9.75 5.96429V9.53571C9.75 9.92969 9.42969 10.25 9.03571 10.25H5.46429C5.06975 10.25 4.75 9.92969 4.75 9.53571V7.75ZM3.08333 3.58333H6.41667V5.25H5.46429C5.06975 5.25 4.75 5.56975 4.75 5.96429V6.91667H3.08333L3.08333 3.58333Z" fill="white"/>
</svg>
