<svg width="110" height="25" viewBox="0 0 110 25" fill="none" xmlns="http://www.w3.org/2000/svg">
<rect width="6" height="19.7176" rx="3" transform="matrix(0.985214 0.171326 -0.381623 0.924318 13.6094 1.22766)" fill="#6633F5"/>
<path d="M24.1363 4.03394C24.7417 2.49219 26.5819 1.46131 28.2201 1.74619C29.838 2.02754 30.6415 3.48611 30.0148 5.004L24.8252 17.5738C24.182 19.1315 22.2475 20.1008 20.6575 19.6619C19.2906 19.2847 18.6573 17.9864 19.1848 16.643L24.1363 4.03394Z" fill="#6633F5"/>
<path d="M1.36404 4.92068C0.755168 3.38988 1.57406 1.93209 3.20186 1.64902C4.84504 1.36327 6.69308 2.38136 7.32957 3.92298L12.6251 16.7491C13.236 18.2289 12.5506 19.6753 11.0406 20.0928C9.29056 20.5767 7.16141 19.4962 6.47769 17.7772L1.36404 4.92068Z" fill="url(#paint0_linear_110_86)"/>
<path d="M12.9285 4.94189C12.337 3.50917 12.953 2.09804 14.3765 1.62473C16.1489 1.03543 18.4023 2.1251 19.11 3.91368L24.2432 16.8864C24.8488 18.4171 24.0288 19.873 22.4017 20.156C20.757 20.442 18.9073 19.423 18.2702 17.88L12.9285 4.94189Z" fill="url(#paint1_linear_110_86)"/>
<path d="M35.5599 20.16C34.4266 20.16 33.4066 19.9267 32.4999 19.46C31.6066 18.98 30.9066 18.32 30.3999 17.48C29.8932 16.64 29.6399 15.6867 29.6399 14.62C29.6399 13.5533 29.8932 12.6 30.3999 11.76C30.9066 10.92 31.6066 10.2667 32.4999 9.8C33.4066 9.32 34.4266 9.08 35.5599 9.08C36.6932 9.08 37.7066 9.32 38.5999 9.8C39.4932 10.2667 40.1932 10.92 40.6999 11.76C41.2066 12.6 41.4599 13.5533 41.4599 14.62C41.4599 15.6867 41.2066 16.64 40.6999 17.48C40.1932 18.32 39.4932 18.98 38.5999 19.46C37.7066 19.9267 36.6932 20.16 35.5599 20.16ZM35.5599 17.6C36.3599 17.6 37.0132 17.3333 37.5199 16.8C38.0399 16.2533 38.2999 15.5267 38.2999 14.62C38.2999 13.7133 38.0399 12.9933 37.5199 12.46C37.0132 11.9133 36.3599 11.64 35.5599 11.64C34.7599 11.64 34.0999 11.9133 33.5799 12.46C33.0599 12.9933 32.7999 13.7133 32.7999 14.62C32.7999 15.5267 33.0599 16.2533 33.5799 16.8C34.0999 17.3333 34.7599 17.6 35.5599 17.6Z" fill="url(#paint2_linear_110_86)"/>
<path d="M46.5254 10.66C46.8987 10.14 47.3987 9.74667 48.0254 9.48C48.6654 9.21333 49.3987 9.08 50.2254 9.08V11.96C49.8787 11.9333 49.6454 11.92 49.5254 11.92C48.632 11.92 47.932 12.1733 47.4254 12.68C46.9187 13.1733 46.6654 13.92 46.6654 14.92V20H43.5454V9.24H46.5254V10.66Z" fill="url(#paint3_linear_110_86)"/>
<path d="M56.7005 15.78L55.2005 17.26V20H52.0805V5.16H55.2005V13.56L59.7605 9.24H63.4805L59.0005 13.8L63.8805 20H60.1005L56.7005 15.78Z" fill="url(#paint4_linear_110_86)"/>
<path d="M68.7036 9.48H71.4636V11.88H68.7836V20H65.6636V11.88H64.0036V9.48H65.6636V9C65.6636 7.77333 66.0236 6.8 66.7436 6.08C67.477 5.36 68.5036 5 69.8236 5C70.2903 5 70.7303 5.05333 71.1436 5.16C71.5703 5.25333 71.9236 5.39333 72.2036 5.58L71.3836 7.84C71.0236 7.58667 70.6036 7.46 70.1236 7.46C69.177 7.46 68.7036 7.98 68.7036 9.02V9.48ZM73.0236 5.16H76.1436V20H73.0236V5.16Z" fill="url(#paint5_linear_110_86)"/>
<path d="M84.1732 20.16C83.0398 20.16 82.0198 19.9267 81.1132 19.46C80.2198 18.98 79.5198 18.32 79.0132 17.48C78.5065 16.64 78.2532 15.6867 78.2532 14.62C78.2532 13.5533 78.5065 12.6 79.0132 11.76C79.5198 10.92 80.2198 10.2667 81.1132 9.8C82.0198 9.32 83.0398 9.08 84.1732 9.08C85.3065 9.08 86.3198 9.32 87.2132 9.8C88.1065 10.2667 88.8065 10.92 89.3132 11.76C89.8198 12.6 90.0732 13.5533 90.0732 14.62C90.0732 15.6867 89.8198 16.64 89.3132 17.48C88.8065 18.32 88.1065 18.98 87.2132 19.46C86.3198 19.9267 85.3065 20.16 84.1732 20.16ZM84.1732 17.6C84.9732 17.6 85.6265 17.3333 86.1332 16.8C86.6532 16.2533 86.9132 15.5267 86.9132 14.62C86.9132 13.7133 86.6532 12.9933 86.1332 12.46C85.6265 11.9133 84.9732 11.64 84.1732 11.64C83.3732 11.64 82.7132 11.9133 82.1932 12.46C81.6732 12.9933 81.4132 13.7133 81.4132 14.62C81.4132 15.5267 81.6732 16.2533 82.1932 16.8C82.7132 17.3333 83.3732 17.6 84.1732 17.6Z" fill="url(#paint6_linear_110_86)"/>
<path d="M109.146 9.24L105.246 20H102.246L99.8257 13.32L97.3257 20H94.3257L90.4457 9.24H93.3857L95.9257 16.52L98.5657 9.24H101.206L103.766 16.52L106.386 9.24H109.146Z" fill="url(#paint7_linear_110_86)"/>
<defs>
<linearGradient id="paint0_linear_110_86" x1="3.08855" y1="1.66872" x2="6.48864" y2="21.221" gradientUnits="userSpaceOnUse">
<stop stop-color="#E33FD3"/>
<stop offset="1" stop-color="#6633F5"/>
</linearGradient>
<linearGradient id="paint1_linear_110_86" x1="14.6502" y1="1.04063" x2="18.1042" y2="20.9033" gradientUnits="userSpaceOnUse">
<stop stop-color="#E33FD3"/>
<stop offset="1" stop-color="#6633F5"/>
</linearGradient>
<linearGradient id="paint2_linear_110_86" x1="32.7407" y1="7.99999" x2="112.241" y2="22.5" gradientUnits="userSpaceOnUse">
<stop stop-color="#9037E9"/>
<stop offset="1" stop-color="#6633F5"/>
</linearGradient>
<linearGradient id="paint3_linear_110_86" x1="32.7407" y1="7.99999" x2="112.241" y2="22.5" gradientUnits="userSpaceOnUse">
<stop stop-color="#9037E9"/>
<stop offset="1" stop-color="#6633F5"/>
</linearGradient>
<linearGradient id="paint4_linear_110_86" x1="32.7407" y1="7.99999" x2="112.241" y2="22.5" gradientUnits="userSpaceOnUse">
<stop stop-color="#9037E9"/>
<stop offset="1" stop-color="#6633F5"/>
</linearGradient>
<linearGradient id="paint5_linear_110_86" x1="32.7407" y1="7.99999" x2="112.241" y2="22.5" gradientUnits="userSpaceOnUse">
<stop stop-color="#9037E9"/>
<stop offset="1" stop-color="#6633F5"/>
</linearGradient>
<linearGradient id="paint6_linear_110_86" x1="32.7407" y1="7.99999" x2="112.241" y2="22.5" gradientUnits="userSpaceOnUse">
<stop stop-color="#9037E9"/>
<stop offset="1" stop-color="#6633F5"/>
</linearGradient>
<linearGradient id="paint7_linear_110_86" x1="32.7407" y1="7.99999" x2="112.241" y2="22.5" gradientUnits="userSpaceOnUse">
<stop stop-color="#9037E9"/>
<stop offset="1" stop-color="#6633F5"/>
</linearGradient>
</defs>
</svg>
