<svg width="32" height="21" viewBox="0 0 32 21" fill="none" xmlns="http://www.w3.org/2000/svg">
<rect width="6" height="19.7176" rx="3" transform="matrix(0.985214 0.171326 -0.381623 0.924318 13.6094 0.727661)" fill="#6633F5"/>
<path d="M24.1363 3.53394C24.7417 1.99219 26.5819 0.961314 28.2201 1.24619C29.838 1.52754 30.6415 2.98611 30.0148 4.504L24.8252 17.0738C24.182 18.6315 22.2475 19.6008 20.6575 19.1619C19.2906 18.7847 18.6573 17.4864 19.1848 16.143L24.1363 3.53394Z" fill="#6633F5"/>
<path d="M1.36404 4.42068C0.755168 2.88988 1.57406 1.43209 3.20186 1.14902C4.84504 0.863273 6.69308 1.88136 7.32957 3.42298L12.6251 16.2491C13.236 17.7289 12.5506 19.1753 11.0406 19.5928C9.29056 20.0767 7.16141 18.9962 6.47769 17.2772L1.36404 4.42068Z" fill="url(#paint0_linear_261_2442)"/>
<path d="M12.9285 4.44189C12.337 3.00917 12.953 1.59804 14.3765 1.12473C16.1489 0.535433 18.4023 1.6251 19.11 3.41368L24.2432 16.3864C24.8488 17.9171 24.0288 19.373 22.4017 19.656C20.757 19.942 18.9073 18.923 18.2702 17.38L12.9285 4.44189Z" fill="url(#paint1_linear_261_2442)"/>
<defs>
<linearGradient id="paint0_linear_261_2442" x1="3.08855" y1="1.16872" x2="6.48864" y2="20.721" gradientUnits="userSpaceOnUse">
<stop stop-color="#E33FD3"/>
<stop offset="1" stop-color="#6633F5"/>
</linearGradient>
<linearGradient id="paint1_linear_261_2442" x1="14.6502" y1="0.540628" x2="18.1042" y2="20.4033" gradientUnits="userSpaceOnUse">
<stop stop-color="#E33FD3"/>
<stop offset="1" stop-color="#6633F5"/>
</linearGradient>
</defs>
</svg>
