<svg width="280" height="89" viewBox="0 0 280 89" fill="none" xmlns="http://www.w3.org/2000/svg">
<path d="M79.4774 71.2181C75.0614 71.2181 71.1734 70.3541 67.8134 68.6261C64.5014 66.8981 61.9334 64.5461 60.1094 61.5701C58.2854 58.5461 57.3734 55.1141 57.3734 51.2741C57.3734 47.3861 58.2614 43.9541 60.0374 40.9781C61.8614 37.9541 64.3334 35.6021 67.4534 33.9221C70.5734 32.1941 74.1014 31.3301 78.0374 31.3301C81.8294 31.3301 85.2374 32.1461 88.2614 33.7781C91.3334 35.3621 93.7574 37.6661 95.5334 40.6901C97.3094 43.6661 98.1974 47.2421 98.1974 51.4181C98.1974 51.8501 98.1734 52.3541 98.1254 52.9301C98.0774 53.4581 98.0294 53.9621 97.9814 54.4421H66.5174V47.8901H92.0774L87.7574 49.8341C87.7574 47.8181 87.3494 46.0661 86.5334 44.5781C85.7174 43.0901 84.5894 41.9381 83.1494 41.1221C81.7094 40.2581 80.0294 39.8261 78.1094 39.8261C76.1894 39.8261 74.4854 40.2581 72.9974 41.1221C71.5574 41.9381 70.4294 43.1141 69.6134 44.6501C68.7974 46.1381 68.3894 47.9141 68.3894 49.9781V51.7061C68.3894 53.8181 68.8454 55.6901 69.7574 57.3221C70.7174 58.9061 72.0374 60.1301 73.7174 60.9941C75.4454 61.8101 77.4614 62.2181 79.7654 62.2181C81.8294 62.2181 83.6294 61.9061 85.1654 61.2821C86.7494 60.6581 88.1894 59.7221 89.4854 58.4741L95.4614 64.9541C93.6854 66.9701 91.4534 68.5301 88.7654 69.6341C86.0774 70.6901 82.9814 71.2181 79.4774 71.2181ZM105.675 70.6421V31.9061H116.403V42.8501L114.891 39.6821C116.043 36.9461 117.891 34.8821 120.435 33.4901C122.979 32.0501 126.075 31.3301 129.723 31.3301V41.6981C129.243 41.6501 128.811 41.6261 128.427 41.6261C128.043 41.5781 127.635 41.5541 127.203 41.5541C124.131 41.5541 121.635 42.4421 119.715 44.2181C117.843 45.9461 116.907 48.6581 116.907 52.3541V70.6421H105.675ZM160.016 31.3301C163.088 31.3301 165.824 31.9541 168.224 33.2021C170.672 34.4021 172.592 36.2741 173.984 38.8181C175.376 41.3141 176.072 44.5301 176.072 48.4661V70.6421H164.84V50.1941C164.84 47.0741 164.144 44.7701 162.752 43.2821C161.408 41.7941 159.488 41.0501 156.992 41.0501C155.216 41.0501 153.608 41.4341 152.168 42.2021C150.776 42.9221 149.672 44.0501 148.856 45.5861C148.088 47.1221 147.704 49.0901 147.704 51.4901V70.6421H136.472V31.9061H147.2V42.6341L145.184 39.3941C146.576 36.8021 148.568 34.8101 151.16 33.4181C153.752 32.0261 156.704 31.3301 160.016 31.3301ZM186.253 70.6421V31.9061H197.485V70.6421H186.253ZM191.869 26.5061C189.805 26.5061 188.125 25.9061 186.829 24.7061C185.533 23.5061 184.885 22.0181 184.885 20.2421C184.885 18.4661 185.533 16.9781 186.829 15.7781C188.125 14.5781 189.805 13.9781 191.869 13.9781C193.933 13.9781 195.613 14.5541 196.909 15.7061C198.205 16.8101 198.853 18.2501 198.853 20.0261C198.853 21.8981 198.205 23.4581 196.909 24.7061C195.661 25.9061 193.981 26.5061 191.869 26.5061ZM223.75 71.2181C219.19 71.2181 215.638 70.0661 213.094 67.7621C210.55 65.4101 209.278 61.9301 209.278 57.3221V23.3381H220.51V57.1781C220.51 58.8101 220.942 60.0821 221.806 60.9941C222.67 61.8581 223.846 62.2901 225.334 62.2901C227.11 62.2901 228.622 61.8101 229.87 60.8501L232.894 68.7701C231.742 69.5861 230.35 70.2101 228.718 70.6421C227.134 71.0261 225.478 71.2181 223.75 71.2181ZM203.302 41.4101V32.7701H230.158V41.4101H203.302ZM257.227 71.2181C252.811 71.2181 248.923 70.3541 245.563 68.6261C242.251 66.8981 239.683 64.5461 237.859 61.5701C236.035 58.5461 235.123 55.1141 235.123 51.2741C235.123 47.3861 236.011 43.9541 237.787 40.9781C239.611 37.9541 242.083 35.6021 245.203 33.9221C248.323 32.1941 251.851 31.3301 255.787 31.3301C259.579 31.3301 262.987 32.1461 266.011 33.7781C269.083 35.3621 271.507 37.6661 273.283 40.6901C275.059 43.6661 275.947 47.2421 275.947 51.4181C275.947 51.8501 275.923 52.3541 275.875 52.9301C275.827 53.4581 275.779 53.9621 275.731 54.4421H244.267V47.8901H269.827L265.507 49.8341C265.507 47.8181 265.099 46.0661 264.283 44.5781C263.467 43.0901 262.339 41.9381 260.899 41.1221C259.459 40.2581 257.779 39.8261 255.859 39.8261C253.939 39.8261 252.235 40.2581 250.747 41.1221C249.307 41.9381 248.179 43.1141 247.363 44.6501C246.547 46.1381 246.139 47.9141 246.139 49.9781V51.7061C246.139 53.8181 246.595 55.6901 247.507 57.3221C248.467 58.9061 249.787 60.1301 251.467 60.9941C253.195 61.8101 255.211 62.2181 257.515 62.2181C259.579 62.2181 261.379 61.9061 262.915 61.2821C264.499 60.6581 265.939 59.7221 267.235 58.4741L273.211 64.9541C271.435 66.9701 269.203 68.5301 266.515 69.6341C263.827 70.6901 260.731 71.2181 257.227 71.2181Z" fill="url(#paint0_linear_8_3)"/>
<g filter="url(#filter0_d_8_3)">
<path d="M37.7831 70.6421L59.5922 20.2581H46.3867L30.8281 56.2519L37.7831 70.6421Z" fill="url(#paint1_linear_8_3)"/>
<path d="M32.4485 56.2359L32.447 56.2394L18.0631 22.459C17.4076 21.1448 16.05 20.2421 14.4816 20.2421H2.51952L23.1977 68.1717H23.2015C23.8022 69.6219 25.2313 70.6421 26.8987 70.6421H37.7832L37.7901 70.6261L32.4485 56.2359Z" fill="url(#paint2_linear_8_3)"/>
</g>
<defs>
<filter id="filter0_d_8_3" x="0.519516" y="20.2421" width="61.0727" height="54.4" filterUnits="userSpaceOnUse" color-interpolation-filters="sRGB">
<feFlood flood-opacity="0" result="BackgroundImageFix"/>
<feColorMatrix in="SourceAlpha" type="matrix" values="0 0 0 0 0 0 0 0 0 0 0 0 0 0 0 0 0 0 127 0" result="hardAlpha"/>
<feOffset dy="2"/>
<feGaussianBlur stdDeviation="1"/>
<feComposite in2="hardAlpha" operator="out"/>
<feColorMatrix type="matrix" values="0 0 0 0 0 0 0 0 0 0 0 0 0 0 0 0 0 0 0.1 0"/>
<feBlend mode="normal" in2="BackgroundImageFix" result="effect1_dropShadow_8_3"/>
<feBlend mode="normal" in="SourceGraphic" in2="effect1_dropShadow_8_3" result="shape"/>
</filter>
<linearGradient id="paint0_linear_8_3" x1="152.962" y1="12.0145" x2="154.289" y2="78.1515" gradientUnits="userSpaceOnUse">
<stop stop-color="#27B9DB"/>
<stop offset="1" stop-color="#2A58E2"/>
</linearGradient>
<linearGradient id="paint1_linear_8_3" x1="46.0169" y1="20.2581" x2="46.0169" y2="70.6421" gradientUnits="userSpaceOnUse">
<stop stop-color="#28BDDE"/>
<stop offset="1" stop-color="#1E2E7D"/>
</linearGradient>
<linearGradient id="paint2_linear_8_3" x1="13.1498" y1="22.832" x2="31.3691" y2="69.6689" gradientUnits="userSpaceOnUse">
<stop stop-color="#28BDDE"/>
<stop offset="1" stop-color="#2A58E2"/>
</linearGradient>
</defs>
</svg>
