<?xml version="1.0" standalone="no"?>
<!DOCTYPE svg PUBLIC "-//W3C//DTD SVG 20010904//EN"
 "http://www.w3.org/TR/2001/REC-SVG-20010904/DTD/svg10.dtd">
<svg version="1.0" xmlns="http://www.w3.org/2000/svg"
 width="992.000000pt" height="992.000000pt" viewBox="0 0 992.000000 992.000000"
 preserveAspectRatio="xMidYMid meet">
<metadata>
Created by potrace 1.14, written by Peter Selinger 2001-2017
</metadata>
<g transform="translate(0.000000,992.000000) scale(0.100000,-0.100000)"
fill="#000000" stroke="none">
<path d="M430 9034 c0 -7 4 -15 9 -18 5 -3 11 -16 15 -29 3 -13 18 -50 33 -83
15 -32 28 -61 29 -64 0 -3 7 -21 15 -40 7 -19 12 -38 11 -42 -1 -5 2 -8 7 -8
5 0 15 -17 22 -37 6 -20 23 -62 38 -92 14 -31 26 -58 27 -61 0 -3 7 -21 15
-40 7 -19 12 -38 11 -42 -1 -5 2 -8 7 -8 8 0 21 -26 26 -50 1 -3 10 -25 22
-50 40 -87 66 -152 66 -166 0 -8 4 -14 7 -14 4 0 13 -15 20 -32 7 -18 23 -56
36 -85 13 -28 24 -59 24 -67 0 -9 5 -16 10 -16 6 0 10 -9 10 -20 0 -11 4 -20
10 -20 5 0 9 -3 8 -7 -2 -5 6 -28 16 -53 11 -25 20 -47 21 -50 1 -3 10 -23 19
-45 10 -22 25 -56 33 -75 8 -19 19 -43 24 -52 5 -10 9 -25 9 -33 0 -8 5 -15
10 -15 6 0 10 -8 10 -18 0 -10 7 -27 15 -38 8 -12 11 -24 8 -28 -3 -3 0 -6 7
-6 7 0 11 -3 7 -6 -3 -4 2 -23 13 -44 11 -21 16 -40 13 -44 -4 -3 -1 -6 5 -6
7 0 12 -6 12 -12 0 -7 25 -67 55 -132 29 -66 52 -124 49 -128 -3 -4 0 -8 5 -8
6 0 11 -5 11 -10 0 -6 10 -32 21 -58 12 -26 33 -72 46 -102 13 -30 28 -62 33
-71 5 -11 4 -21 -3 -29 -9 -10 -9 -11 0 -6 13 7 37 -27 26 -38 -3 -3 -1 -6 5
-6 7 0 12 -6 12 -13 0 -8 6 -27 14 -43 23 -48 56 -123 56 -128 0 -2 16 -39 36
-83 19 -43 39 -87 44 -98 4 -11 16 -38 26 -60 10 -22 19 -49 21 -60 2 -10 8
-22 14 -26 6 -3 10 -9 9 -13 -1 -6 30 -80 51 -119 5 -10 7 -22 4 -27 -4 -6 -2
-10 3 -10 9 0 48 -91 43 -99 -2 -2 1 -7 6 -10 5 -3 25 -44 44 -91 19 -47 37
-86 42 -88 4 -2 7 -12 7 -22 0 -10 5 -22 10 -25 6 -3 10 -15 10 -25 0 -10 7
-26 16 -34 8 -9 13 -16 10 -16 -3 0 5 -24 18 -52 36 -84 39 -92 37 -102 -1 -5
2 -12 8 -15 12 -8 73 -149 74 -173 1 -9 5 -14 9 -12 4 3 8 -2 8 -10 0 -8 11
-36 25 -61 14 -25 23 -45 19 -45 -4 0 -1 -6 5 -13 6 -8 8 -17 4 -20 -3 -4 -1
-7 5 -7 7 0 11 -3 10 -7 -1 -5 5 -24 14 -43 9 -19 28 -61 42 -92 14 -32 22
-58 18 -58 -4 0 -2 -4 4 -8 5 -4 21 -34 34 -67 13 -33 29 -63 34 -67 6 -4 8
-8 3 -8 -4 0 1 -17 12 -39 11 -21 17 -41 14 -45 -4 -3 0 -6 7 -6 7 0 11 -3 7
-6 -5 -5 23 -70 59 -136 8 -16 12 -28 8 -28 -3 0 1 -12 11 -26 9 -14 14 -32
11 -40 -3 -8 -2 -13 3 -10 9 6 34 -46 34 -70 0 -8 4 -14 9 -14 4 0 8 -4 8 -10
0 -5 14 -39 30 -76 17 -36 32 -71 33 -77 1 -7 5 -14 9 -17 3 -3 8 -14 10 -25
1 -11 7 -23 11 -26 4 -3 9 -15 10 -27 0 -12 7 -24 15 -27 8 -3 11 -12 8 -20
-3 -8 -1 -15 5 -15 6 0 9 -6 6 -14 -3 -8 -2 -16 2 -18 14 -5 51 -99 44 -111
-3 -6 -1 -7 5 -3 7 4 13 2 13 -3 3 -20 5 -26 17 -47 6 -12 8 -24 5 -28 -3 -3
-1 -6 6 -6 7 0 9 -4 6 -10 -3 -5 -1 -10 4 -10 6 0 10 -3 9 -7 -1 -5 6 -25 15
-47 9 -21 17 -40 17 -42 0 -2 16 -39 36 -81 20 -43 45 -100 56 -128 11 -27 25
-61 31 -75 6 -14 11 -27 12 -30 1 -3 12 -27 25 -55 13 -27 22 -56 21 -62 -1
-7 2 -13 7 -13 4 0 14 -16 21 -36 7 -20 23 -57 34 -83 12 -25 22 -48 22 -51 1
-3 10 -23 20 -45 10 -22 18 -46 18 -52 0 -7 4 -13 9 -13 4 0 8 -9 8 -20 0 -11
4 -20 8 -20 4 0 14 -20 21 -45 7 -25 17 -45 22 -45 5 0 9 -7 9 -15 0 -8 4 -23
9 -33 15 -29 61 -132 61 -138 0 -3 12 -31 26 -62 53 -114 65 -146 60 -159 -3
-7 0 -12 6 -10 7 1 12 -2 13 -8 0 -5 4 -16 8 -22 5 -7 5 -13 0 -13 -4 0 -2 -4
5 -9 8 -5 15 -20 15 -34 1 -14 5 -23 8 -21 6 4 94 -201 90 -212 -2 -4 2 -10 9
-14 6 -4 13 -13 14 -21 3 -12 12 -35 61 -144 28 -63 130 -300 131 -305 0 -3 8
-21 16 -40 26 -61 31 -75 30 -82 -1 -5 2 -8 6 -8 12 0 34 -68 26 -81 -5 -8 -3
-9 6 -4 10 6 12 4 7 -9 -4 -9 -3 -14 2 -11 9 5 27 -32 23 -47 -1 -5 3 -8 9 -8
5 0 7 -4 4 -10 -3 -5 -1 -10 6 -10 7 0 9 -3 6 -7 -4 -3 0 -17 8 -30 9 -13 13
-28 10 -33 -3 -6 -2 -10 4 -10 6 0 18 -15 27 -32 19 -37 90 -126 116 -146 9
-7 23 -18 30 -25 7 -7 27 -22 45 -32 18 -10 29 -23 26 -28 -3 -6 -1 -7 4 -4 6
4 36 -7 67 -24 31 -17 56 -28 56 -25 0 2 15 0 33 -5 17 -6 46 -13 62 -16 17
-3 36 -10 44 -16 11 -9 13 -9 8 0 -5 7 4 11 27 10 19 0 32 -5 29 -10 -3 -5 3
-4 13 1 11 6 21 11 24 13 3 1 15 -3 27 -9 16 -9 22 -9 26 1 3 9 7 9 17 0 8 -7
19 -9 29 -4 9 5 18 10 21 12 3 1 15 -3 27 -9 16 -9 22 -9 26 1 3 9 7 9 17 0 8
-7 19 -9 29 -4 9 5 18 10 21 12 3 1 15 -3 27 -9 16 -9 22 -9 26 1 3 9 7 9 17
0 8 -7 19 -9 29 -4 9 5 18 10 21 12 3 1 15 -3 27 -9 16 -9 22 -9 26 1 3 9 7 9
17 0 10 -9 18 -9 34 -1 12 6 23 10 26 9 3 -2 13 -7 22 -12 11 -6 18 -5 21 4 3
9 7 9 17 0 10 -9 18 -9 34 -1 12 6 21 11 21 11 0 0 10 -5 22 -11 15 -8 22 -9
25 -1 2 7 12 7 30 0 14 -5 29 -7 32 -3 11 11 36 11 36 0 0 -7 4 -7 13 0 8 7
18 7 27 2 9 -6 17 -5 22 3 5 9 10 9 19 0 8 -8 18 -9 28 -4 9 5 18 10 21 12 3
1 15 -3 27 -9 16 -9 22 -9 26 1 3 9 7 9 17 0 10 -9 18 -9 34 -1 12 6 21 11 21
11 0 0 10 -5 22 -11 16 -9 22 -9 26 1 3 9 7 9 17 0 10 -9 18 -9 34 -1 12 6 21
11 21 11 0 0 10 -5 22 -11 16 -9 22 -9 26 1 3 9 7 9 17 0 10 -9 18 -9 34 -1
12 6 21 11 21 11 0 0 10 -5 22 -11 16 -9 22 -9 26 1 3 9 7 9 17 0 8 -7 19 -9
29 -4 9 5 18 10 21 12 3 1 15 -3 27 -9 16 -9 22 -9 26 1 3 9 7 9 17 0 10 -9
18 -9 34 -1 12 6 21 11 21 11 0 0 10 -5 23 -12 13 -7 22 -8 22 -2 0 13 53 9
62 -4 5 -6 8 -5 8 4 0 10 3 11 14 2 8 -7 17 -8 20 -3 6 10 48 8 68 -4 7 -4 10
-3 5 1 -4 5 -1 15 7 24 8 9 15 18 15 21 0 10 14 45 38 98 15 34 28 50 36 46 9
-5 9 -4 1 5 -9 9 -7 22 7 50 10 21 21 49 24 64 4 15 11 27 16 27 5 0 8 3 7 8
-3 15 53 142 64 142 4 0 5 6 2 14 -3 7 1 20 8 27 7 8 14 21 16 29 7 36 36 100
44 100 5 0 6 5 3 10 -3 6 -2 10 3 10 5 0 9 6 9 13 0 11 31 85 89 214 13 29 26
64 30 79 4 14 13 28 20 31 8 3 12 9 9 13 -3 5 8 38 25 75 16 37 30 72 30 78 0
6 7 18 15 27 9 10 17 26 19 36 3 11 16 46 31 79 34 75 47 106 76 175 13 30 28
58 33 62 6 4 7 8 2 8 -4 0 -1 11 8 25 9 14 14 25 11 25 -3 0 3 17 14 37 10 21
20 41 21 45 7 32 55 126 61 122 5 -3 6 2 3 11 -4 8 -1 21 5 29 6 7 8 16 4 19
-3 4 -1 7 5 7 7 0 12 9 12 19 0 11 4 23 10 26 6 3 10 15 10 26 0 11 4 17 10
14 6 -3 7 1 4 9 -3 9 -1 16 5 16 6 0 10 3 9 8 -4 14 24 82 32 77 4 -3 6 4 3
15 -3 11 0 20 6 20 6 0 11 7 11 16 0 8 5 25 12 37 7 12 13 28 14 36 2 8 9 18
16 22 7 5 9 9 4 9 -5 0 -3 6 3 13 6 8 8 17 4 20 -3 4 -1 7 5 7 7 0 11 3 10 8
-1 4 4 20 10 35 7 16 12 33 12 38 0 6 5 7 12 3 7 -4 8 -3 4 5 -4 6 -3 17 2 24
6 7 11 17 12 22 1 6 7 21 13 35 6 14 9 29 9 33 -1 4 5 10 13 13 8 3 13 10 10
14 -3 5 13 48 35 97 23 48 40 88 39 88 -1 0 8 22 20 48 14 31 26 45 34 41 9
-5 9 -4 0 6 -9 10 -8 20 5 44 9 17 17 33 17 36 1 3 11 27 23 53 12 27 22 51
22 54 0 3 11 27 24 53 13 27 22 51 19 54 -4 3 -1 6 6 6 7 0 9 4 6 10 -3 6 -2
10 3 10 5 0 9 6 9 13 0 7 16 47 36 90 20 44 37 85 37 92 0 8 6 20 13 27 6 7
13 20 15 28 7 28 65 155 74 161 5 3 9 9 9 13 -2 18 13 66 20 66 5 0 9 7 9 15
0 9 8 30 17 48 9 18 18 38 19 45 1 7 8 20 16 29 7 9 13 21 13 27 1 6 5 20 10
31 4 11 45 106 90 210 45 105 88 205 95 222 7 18 15 31 19 29 3 -2 7 7 8 21 0
14 5 28 10 32 4 3 9 13 11 21 2 8 16 42 31 75 15 33 36 82 46 108 13 35 21 45
28 35 6 -9 7 -8 3 6 -4 10 -1 25 5 32 6 8 8 14 5 14 -4 0 -1 10 6 23 7 12 11
25 10 30 -1 4 3 7 9 7 5 0 8 4 4 9 -3 5 2 16 11 25 8 9 12 20 9 26 -3 5 -1 10
4 10 6 0 10 3 9 8 -1 8 6 27 35 92 12 25 22 51 23 59 2 8 8 17 14 21 7 4 11 9
9 11 -1 2 3 21 10 42 10 28 17 37 28 32 12 -4 13 -2 6 7 -8 9 -3 30 17 73 15
33 26 63 23 68 -2 4 1 7 6 7 6 0 11 6 11 13 1 6 9 30 20 52 11 22 19 46 20 53
0 6 4 12 8 12 5 0 9 6 9 13 0 6 7 29 16 50 11 26 21 36 29 31 10 -5 10 -4 1 6
-10 10 -9 19 2 42 8 15 22 41 30 57 8 15 12 31 8 35 -3 3 -1 6 5 6 7 0 12 9
12 20 0 11 4 20 8 20 5 0 9 6 9 13 0 6 14 41 30 77 26 57 42 93 48 110 17 49
48 114 58 121 5 3 8 8 7 10 -4 9 13 59 19 59 4 0 8 6 8 13 0 6 7 28 15 47 9
19 24 54 34 78 10 23 22 42 27 42 4 0 6 4 3 9 -3 5 1 21 8 37 31 65 56 124 56
133 0 6 5 11 12 11 6 0 9 3 6 6 -9 9 69 179 81 177 6 -2 8 4 5 12 -5 13 88
249 107 270 5 5 9 17 9 27 0 10 5 18 10 18 6 0 10 3 9 8 -1 4 2 17 6 29 4 12
7 25 6 28 -1 3 5 13 14 21 8 9 13 19 10 24 -3 5 -1 11 5 15 5 3 10 15 10 26 0
10 5 19 10 19 6 0 10 5 10 11 0 5 9 29 19 52 10 23 31 71 46 107 15 36 31 70
36 76 6 7 11 20 13 30 8 40 73 174 81 167 4 -5 5 -2 1 5 -4 7 -1 27 7 45 9 18
39 86 67 152 29 66 63 144 76 173 13 29 24 55 24 57 0 2 11 28 24 57 42 90 54
125 47 134 -3 6 -428 10 -1050 9 -917 0 -1045 -2 -1053 -15 -7 -13 -39 -86
-43 -100 -2 -5 -19 -45 -55 -125 -10 -22 -32 -74 -50 -115 -18 -41 -41 -95
-52 -120 -10 -25 -26 -58 -34 -75 -7 -16 -29 -67 -47 -113 -18 -45 -36 -80
-38 -78 -3 3 -5 -3 -6 -14 -1 -10 -13 -43 -27 -73 -14 -29 -26 -59 -26 -65 0
-7 -5 -12 -10 -12 -6 0 -9 -3 -8 -7 3 -15 -14 -63 -23 -63 -5 0 -8 -3 -7 -7 5
-18 -24 -83 -34 -77 -6 4 -8 2 -5 -4 6 -9 -2 -34 -49 -139 -8 -18 -20 -48 -28
-65 -15 -36 -47 -108 -77 -175 -11 -23 -19 -47 -19 -52 0 -6 -4 -11 -8 -11 -5
0 -9 -6 -9 -12 0 -13 -7 -31 -57 -141 -14 -32 -26 -60 -26 -64 0 -4 -8 -15
-17 -26 -10 -11 -13 -17 -6 -14 6 4 3 -11 -8 -32 -10 -22 -19 -45 -19 -51 0
-5 -4 -10 -10 -10 -5 0 -9 -3 -8 -7 1 -9 -8 -36 -27 -78 -8 -16 -23 -52 -35
-80 -11 -27 -25 -58 -30 -67 -6 -10 -10 -25 -10 -33 0 -8 -5 -15 -12 -15 -6 0
-9 -3 -5 -6 3 -4 -5 -28 -18 -55 -14 -27 -25 -55 -25 -64 0 -8 -4 -15 -10 -15
-5 0 -10 -7 -10 -16 0 -8 -5 -25 -12 -37 -7 -12 -13 -27 -14 -32 -1 -6 -17
-44 -36 -85 -19 -41 -43 -95 -53 -120 -19 -47 -48 -113 -83 -190 -31 -68 -55
-124 -57 -130 -9 -32 -18 -50 -26 -50 -6 0 -8 -4 -5 -9 4 -5 -5 -32 -19 -59
-14 -27 -25 -57 -25 -66 0 -9 -4 -16 -10 -16 -5 0 -10 -9 -10 -19 0 -11 -6
-26 -12 -33 -7 -7 -15 -22 -16 -33 -2 -11 -7 -24 -12 -30 -4 -5 -11 -21 -15
-35 -4 -14 -20 -51 -35 -82 -15 -31 -25 -59 -22 -62 3 -4 0 -6 -6 -6 -7 0 -12
-6 -12 -14 0 -12 -13 -43 -70 -171 -10 -22 -21 -50 -24 -62 -4 -13 -12 -23
-18 -23 -5 0 -8 -7 -4 -15 3 -8 -2 -21 -10 -29 -8 -9 -14 -17 -12 -18 1 -2 -6
-23 -17 -48 -10 -25 -18 -48 -17 -52 1 -5 -3 -8 -8 -8 -6 0 -10 -7 -10 -15 0
-8 -12 -40 -26 -72 -60 -132 -78 -175 -76 -185 1 -5 -2 -8 -8 -8 -5 0 -10 -6
-10 -14 0 -8 -7 -27 -15 -43 -8 -15 -24 -50 -35 -78 -11 -27 -25 -58 -30 -67
-6 -10 -10 -25 -10 -33 0 -8 -4 -15 -10 -15 -5 0 -10 -7 -10 -15 0 -9 -9 -34
-20 -55 -11 -22 -17 -40 -14 -40 4 0 0 -8 -9 -17 -8 -10 -16 -22 -18 -28 -3
-20 -12 -41 -41 -105 -17 -36 -31 -69 -32 -75 -1 -5 -10 -24 -19 -42 -9 -18
-17 -39 -17 -48 0 -8 -4 -15 -9 -15 -5 0 -12 -12 -15 -27 -9 -37 -29 -83 -37
-83 -3 0 -6 -6 -6 -12 0 -7 -12 -39 -26 -71 -15 -32 -27 -61 -27 -65 0 -4 -12
-29 -25 -57 -14 -27 -25 -56 -25 -63 0 -7 -5 -10 -12 -6 -6 4 -8 3 -5 -3 4 -6
-3 -33 -15 -59 -12 -27 -23 -51 -23 -54 0 -3 -6 -15 -13 -26 -6 -12 -8 -24 -5
-28 3 -3 1 -6 -5 -6 -7 0 -12 -6 -12 -12 -1 -7 -9 -30 -19 -51 l-18 -38 -19
48 c-10 26 -17 51 -16 56 1 4 -2 7 -8 7 -6 0 -9 3 -8 8 1 7 -5 22 -44 108 -10
22 -18 48 -18 57 0 9 -4 17 -8 17 -4 0 -14 17 -21 38 -13 36 -31 77 -76 177
-12 28 -31 74 -41 103 -10 28 -22 52 -26 52 -5 0 -8 6 -8 14 0 8 -11 38 -24
67 -14 29 -23 56 -20 61 3 4 0 8 -5 8 -6 0 -11 4 -11 9 0 5 -10 31 -22 58 -12
26 -22 50 -23 53 -4 11 -26 62 -46 108 -32 71 -43 96 -99 232 -28 69 -57 139
-65 155 -44 100 -66 153 -70 165 -1 3 -10 23 -20 45 -10 22 -19 42 -20 45 -1
3 -8 19 -14 37 -7 18 -12 35 -12 38 1 3 -5 13 -14 21 -8 9 -13 20 -10 25 4 5
1 9 -4 9 -6 0 -10 3 -9 8 2 8 -17 55 -88 218 -58 135 -86 200 -89 209 -1 6
-13 35 -27 65 -23 51 -39 88 -43 100 -6 18 -22 55 -52 120 -19 41 -35 83 -36
93 -1 9 -4 17 -7 17 -5 0 -31 61 -35 80 -1 3 -10 25 -22 50 -45 99 -62 140
-55 140 4 0 1 4 -6 9 -7 4 -15 14 -16 22 -3 13 -20 55 -51 124 -7 17 -23 55
-35 85 -13 30 -36 83 -51 118 -16 34 -29 65 -29 68 0 3 -12 31 -26 62 -15 31
-27 63 -27 70 0 6 -4 12 -8 12 -4 0 -10 12 -14 27 -3 15 -15 45 -25 68 -73
164 -93 208 -95 221 -2 6 -10 27 -18 45 -17 39 -74 170 -92 214 -7 17 -24 55
-37 85 -14 30 -31 71 -38 90 -8 19 -20 46 -27 59 -6 14 -10 28 -7 33 3 4 1 8
-4 8 -6 0 -16 20 -23 45 -7 25 -16 45 -20 45 -4 0 -10 11 -13 24 -3 13 -15 45
-26 70 -11 26 -20 50 -21 54 0 4 -7 18 -14 32 -7 14 -20 41 -28 60 -8 19 -26
61 -41 92 -14 32 -28 69 -32 83 -3 14 -10 25 -16 25 -5 0 -7 3 -5 8 3 4 -3 25
-14 46 -10 22 -19 46 -19 53 0 7 -4 13 -10 13 -5 0 -10 7 -10 15 0 26 -52 128
-97 190 -39 55 -136 150 -152 150 -3 0 -20 10 -38 23 -34 24 -146 69 -197 78
-17 4 -482 7 -1033 9 -812 1 -1003 -1 -1003 -11z"/>
<path d="M1750 5759 c0 -5 5 -7 10 -4 6 3 10 8 10 11 0 2 -4 4 -10 4 -5 0 -10
-5 -10 -11z"/>
<path d="M2946 2962 c-3 -5 1 -9 9 -9 8 0 12 4 9 9 -3 4 -7 8 -9 8 -2 0 -6 -4
-9 -8z"/>
<path d="M6510 1759 c0 -5 5 -7 10 -4 6 3 10 8 10 11 0 2 -4 4 -10 4 -5 0 -10
-5 -10 -11z"/>
<path d="M5395 931 c-3 -5 -2 -12 3 -15 5 -3 9 1 9 9 0 17 -3 19 -12 6z"/>
<path d="M4756 922 c-3 -5 1 -9 9 -9 8 0 12 4 9 9 -3 4 -7 8 -9 8 -2 0 -6 -4
-9 -8z"/>
<path d="M5230 919 c0 -5 5 -7 10 -4 6 3 10 8 10 11 0 2 -4 4 -10 4 -5 0 -10
-5 -10 -11z"/>
<path d="M5316 922 c-3 -5 1 -9 9 -9 8 0 12 4 9 9 -3 4 -7 8 -9 8 -2 0 -6 -4
-9 -8z"/>
<path d="M5705 920 c-3 -6 1 -7 9 -4 18 7 21 14 7 14 -6 0 -13 -4 -16 -10z"/>
</g>
</svg>
