<?xml version="1.0" standalone="no"?>
<!DOCTYPE svg PUBLIC "-//W3C//DTD SVG 20010904//EN"
 "http://www.w3.org/TR/2001/REC-SVG-20010904/DTD/svg10.dtd">
<svg version="1.0" xmlns="http://www.w3.org/2000/svg"
 width="1024.000000pt" height="1024.000000pt" viewBox="0 0 1024.000000 1024.000000"
 preserveAspectRatio="xMidYMid meet">
<metadata>
Created by potrace 1.14, written by Peter Selinger 2001-2017
</metadata>
<g transform="translate(0.000000,1024.000000) scale(0.100000,-0.100000)"
fill="#000000" stroke="none">
<path d="M4720 8151 c-134 -30 -230 -68 -325 -130 -57 -36 -152 -128 -188
-181 -17 -25 -33 -47 -37 -50 -3 -3 -14 -25 -25 -50 -11 -25 -24 -48 -30 -52
-5 -4 -6 -8 -2 -8 4 0 3 -9 -3 -21 -12 -21 -17 -40 -26 -94 -6 -31 -62 -145
-77 -156 -5 -3 -8 -9 -7 -13 2 -6 -53 -143 -100 -251 -9 -22 -27 -63 -39 -92
-11 -28 -26 -64 -33 -80 -6 -15 -12 -30 -13 -33 0 -3 -6 -15 -13 -27 -7 -13
-10 -23 -7 -23 3 0 -1 -12 -9 -27 -9 -16 -49 -111 -91 -213 -41 -102 -84 -205
-95 -230 -10 -25 -51 -121 -89 -215 -38 -93 -78 -188 -87 -210 -10 -22 -19
-49 -21 -59 -2 -11 -7 -24 -12 -30 -5 -6 -19 -36 -30 -66 -12 -30 -25 -64 -30
-75 -20 -45 -41 -97 -97 -232 -32 -78 -61 -140 -65 -138 -3 3 -14 26 -24 52
-10 26 -26 66 -36 88 -9 22 -43 103 -74 180 -32 77 -65 158 -75 180 -10 22
-37 87 -60 145 -23 58 -50 124 -61 147 -10 23 -19 45 -19 48 0 4 -6 21 -14 38
-8 18 -38 88 -66 157 -52 128 -57 139 -83 200 -9 19 -25 60 -37 90 -22 57 -33
82 -69 162 -11 26 -21 50 -21 52 0 3 -5 17 -12 33 -6 15 -12 30 -13 33 -3 9
-26 64 -40 95 -7 16 -39 93 -70 170 -76 184 -142 312 -167 323 -5 2 -8 8 -8
14 0 20 -103 132 -209 226 -94 84 -337 217 -431 237 -8 2 -26 8 -40 13 -14 5
-28 10 -32 11 -5 0 -9 1 -10 2 -14 4 -81 17 -134 25 -21 3 -88 7 -148 8 -95 2
-135 -2 -275 -30 -57 -12 -183 -68 -247 -110 -212 -142 -325 -358 -318 -610 1
-55 5 -111 8 -126 3 -16 8 -40 10 -54 6 -30 33 -111 48 -138 5 -10 11 -26 13
-36 2 -10 13 -38 24 -63 12 -25 21 -49 21 -52 0 -3 11 -31 25 -61 14 -30 25
-59 25 -64 0 -6 4 -18 9 -28 24 -46 151 -373 151 -389 0 -7 5 -13 10 -13 6 0
10 -9 10 -19 0 -11 4 -22 9 -26 5 -3 13 -20 17 -37 3 -18 10 -39 15 -48 5 -8
50 -118 100 -245 50 -126 96 -241 102 -255 5 -14 11 -31 13 -38 1 -7 12 -33
23 -58 12 -24 21 -50 21 -57 0 -7 4 -17 8 -23 5 -5 28 -58 51 -119 23 -60 50
-123 59 -140 9 -16 16 -32 15 -35 -1 -5 11 -40 24 -70 3 -8 7 -17 8 -20 1 -3
8 -21 17 -41 9 -20 19 -47 23 -60 4 -13 14 -40 22 -59 28 -65 32 -75 77 -190
25 -63 50 -128 57 -145 7 -16 13 -32 14 -35 2 -6 5 -12 57 -140 22 -52 41
-102 43 -110 3 -14 46 -122 95 -240 46 -110 251 -626 255 -640 3 -13 35 -93
66 -165 4 -11 36 -90 69 -175 76 -195 70 -179 116 -279 21 -46 44 -89 49 -95
6 -6 28 -38 50 -71 73 -109 235 -259 375 -347 119 -74 329 -155 450 -173 14
-2 54 -8 90 -13 65 -9 243 -8 290 3 14 3 41 8 60 11 47 7 194 57 198 66 2 5 9
8 15 8 6 0 41 18 79 41 127 77 236 204 291 339 23 59 40 107 42 120 0 3 10 19
23 37 12 17 22 36 22 41 0 6 4 12 8 14 10 4 89 182 163 368 19 47 38 88 44 92
5 4 7 8 3 8 -4 0 5 28 21 63 15 34 29 67 31 72 5 19 59 153 80 200 5 11 37 88
71 170 33 83 67 164 74 180 14 32 75 182 80 195 1 3 9 21 17 40 17 40 31 73
33 80 1 3 9 22 18 44 9 21 17 40 17 41 0 1 8 20 17 41 9 22 17 41 18 44 0 3
11 27 23 54 12 27 22 53 22 57 0 10 5 21 34 77 9 17 14 32 10 32 -3 0 -2 6 4
13 6 6 27 54 48 106 34 87 38 93 48 70 34 -82 49 -117 62 -141 9 -16 13 -28
10 -28 -4 0 13 -43 58 -145 8 -16 24 -55 36 -85 23 -57 120 -293 220 -535 32
-77 77 -185 99 -240 22 -55 45 -108 51 -117 5 -10 10 -22 10 -27 0 -4 10 -30
22 -57 11 -27 21 -51 22 -54 0 -3 21 -53 47 -112 26 -60 45 -108 42 -108 -3 0
0 -7 7 -15 7 -8 9 -15 4 -15 -5 0 -4 -4 1 -8 11 -8 97 -209 98 -229 0 -7 4
-13 9 -13 4 0 8 -7 8 -16 0 -22 71 -162 124 -241 66 -100 206 -241 306 -308
25 -16 47 -32 50 -35 3 -3 23 -15 45 -27 22 -11 56 -30 75 -40 41 -23 186 -82
215 -87 11 -2 40 -9 65 -16 182 -49 417 -44 585 12 244 81 416 245 490 467 14
42 25 84 25 93 0 9 3 18 8 20 18 8 140 218 126 218 -3 0 1 12 9 28 18 34 24
47 88 202 28 69 56 136 62 150 6 14 11 27 12 30 3 10 18 46 41 100 46 110 102
247 134 325 19 44 44 104 57 133 12 29 23 54 23 57 0 2 5 16 12 32 6 15 12 30
13 33 2 6 12 30 61 149 20 47 42 100 49 116 7 17 17 41 23 55 6 14 26 63 46
110 44 108 59 144 61 150 1 3 9 22 18 44 9 21 17 40 17 41 0 1 7 19 15 39 8
20 15 38 15 41 -1 3 6 18 14 33 8 15 36 79 62 142 25 63 52 129 59 145 7 17
41 98 75 180 124 303 148 361 173 418 14 31 23 57 20 57 -3 0 -1 6 5 13 6 6
17 30 25 52 8 22 48 121 89 220 41 99 79 189 83 200 5 11 7 23 7 28 -1 4 3 7
8 7 6 0 10 8 10 18 0 10 4 22 8 28 5 5 17 32 27 59 10 28 28 74 41 103 13 29
24 55 24 58 0 3 11 30 25 60 14 30 25 57 25 60 0 3 6 20 14 37 35 76 116 277
135 335 54 165 58 326 12 470 -24 74 -71 172 -82 172 -5 0 -9 6 -9 13 0 14
-101 123 -153 165 -64 52 -211 119 -314 142 -128 30 -362 32 -455 4 -9 -3 -27
-7 -39 -9 -197 -38 -460 -184 -614 -341 -148 -152 -201 -241 -320 -549 -37
-93 -81 -206 -98 -250 -17 -44 -31 -83 -29 -87 1 -5 -3 -8 -9 -8 -5 0 -8 -4
-4 -9 3 -5 1 -12 -4 -15 -5 -3 -12 -17 -15 -30 -3 -14 -11 -38 -18 -53 -6 -15
-12 -30 -13 -33 -1 -3 -7 -18 -14 -35 -7 -16 -30 -77 -53 -135 -22 -58 -46
-118 -53 -135 -7 -16 -16 -41 -20 -55 -4 -14 -11 -29 -15 -35 -3 -5 -15 -32
-25 -60 -9 -27 -23 -63 -31 -80 -7 -16 -36 -91 -64 -165 -29 -74 -61 -154 -71
-177 -10 -24 -19 -47 -19 -53 0 -6 -4 -18 -10 -28 -10 -18 -132 -329 -144
-369 -4 -13 -11 -23 -15 -23 -5 0 -30 54 -36 80 -1 3 -7 19 -14 35 -16 35 -21
49 -52 130 -13 33 -26 65 -30 70 -3 6 -12 28 -19 50 -7 22 -19 55 -27 72 -7
18 -13 34 -12 35 1 2 -8 22 -20 46 -12 23 -19 42 -15 42 4 0 2 6 -3 13 -6 6
-38 84 -72 172 -35 88 -69 174 -76 190 -7 17 -25 62 -39 100 -15 39 -30 79
-36 90 -5 11 -43 108 -85 215 -42 107 -87 221 -100 253 -14 32 -25 65 -25 73
0 8 -5 14 -12 14 -6 0 -9 3 -6 6 4 3 -5 31 -19 62 -14 31 -26 64 -28 73 -2 9
-15 42 -29 73 -14 31 -26 63 -26 71 0 7 -4 16 -9 19 -5 3 -12 18 -16 33 -9 41
-74 171 -112 225 -18 26 -33 50 -33 52 0 12 -144 164 -216 227 -41 36 -200
141 -255 167 -122 58 -259 104 -379 128 -79 15 -334 12 -410 -5z"/>
</g>
</svg>
