<svg width="110" height="25" viewBox="0 0 110 25" fill="none" xmlns="http://www.w3.org/2000/svg">
<rect width="6" height="19.7176" rx="3" transform="matrix(0.985214 0.171326 -0.381623 0.924318 13.6094 1.22766)" fill="#6633F5"/>
<path d="M24.1363 4.03394C24.7417 2.49219 26.5819 1.46131 28.2201 1.74619C29.838 2.02754 30.6415 3.48611 30.0148 5.004L24.8252 17.5738C24.182 19.1315 22.2475 20.1008 20.6575 19.6619C19.2906 19.2847 18.6573 17.9864 19.1848 16.643L24.1363 4.03394Z" fill="#6633F5"/>
<path d="M1.36404 4.92068C0.755168 3.38988 1.57406 1.93209 3.20186 1.64902C4.84504 1.36327 6.69308 2.38136 7.32957 3.92298L12.6251 16.7491C13.236 18.2289 12.5506 19.6753 11.0406 20.0928C9.29056 20.5767 7.16141 19.4962 6.47769 17.7772L1.36404 4.92068Z" fill="url(#paint0_linear_110_86)"/>
<path d="M12.9285 4.94189C12.337 3.50917 12.953 2.09804 14.3765 1.62473C16.1489 1.03543 18.4023 2.1251 19.11 3.91368L24.2432 16.8864C24.8488 18.4171 24.0288 19.873 22.4017 20.156C20.757 20.442 18.9073 19.423 18.2702 17.88L12.9285 4.94189Z" fill="url(#paint1_linear_110_86)"/>
<path d="M35.56 20.16C34.4267 20.16 33.4067 19.9267 32.5 19.46C31.6067 18.98 30.9067 18.32 30.4 17.48C29.8933 16.64 29.64 15.6867 29.64 14.62C29.64 13.5533 29.8933 12.6 30.4 11.76C30.9067 10.92 31.6067 10.2667 32.5 9.8C33.4067 9.32 34.4267 9.08 35.56 9.08C36.6933 9.08 37.7067 9.32 38.6 9.8C39.4933 10.2667 40.1933 10.92 40.7 11.76C41.2067 12.6 41.46 13.5533 41.46 14.62C41.46 15.6867 41.2067 16.64 40.7 17.48C40.1933 18.32 39.4933 18.98 38.6 19.46C37.7067 19.9267 36.6933 20.16 35.56 20.16ZM35.56 17.6C36.36 17.6 37.0133 17.3333 37.52 16.8C38.04 16.2533 38.3 15.5267 38.3 14.62C38.3 13.7133 38.04 12.9933 37.52 12.46C37.0133 11.9133 36.36 11.64 35.56 11.64C34.76 11.64 34.1 11.9133 33.58 12.46C33.06 12.9933 32.8 13.7133 32.8 14.62C32.8 15.5267 33.06 16.2533 33.58 16.8C34.1 17.3333 34.76 17.6 35.56 17.6ZM46.5255 10.66C46.8988 10.14 47.3988 9.74667 48.0255 9.48C48.6655 9.21333 49.3988 9.08 50.2255 9.08V11.96C49.8788 11.9333 49.6455 11.92 49.5255 11.92C48.6321 11.92 47.9321 12.1733 47.4255 12.68C46.9188 13.1733 46.6655 13.92 46.6655 14.92V20H43.5455V9.24H46.5255V10.66ZM56.7006 15.78L55.2006 17.26V20H52.0806V5.16H55.2006V13.56L59.7606 9.24H63.4806L59.0006 13.8L63.8806 20H60.1006L56.7006 15.78ZM68.7038 9.48H71.4638V11.88H68.7838V20H65.6638V11.88H64.0038V9.48H65.6638V9C65.6638 7.77333 66.0238 6.8 66.7438 6.08C67.4771 5.36 68.5038 5 69.8238 5C70.2904 5 70.7304 5.05333 71.1438 5.16C71.5704 5.25333 71.9238 5.39333 72.2038 5.58L71.3838 7.84C71.0238 7.58667 70.6038 7.46 70.1238 7.46C69.1771 7.46 68.7038 7.98 68.7038 9.02V9.48ZM73.0238 5.16H76.1438V20H73.0238V5.16ZM84.1733 20.16C83.0399 20.16 82.0199 19.9267 81.1133 19.46C80.2199 18.98 79.5199 18.32 79.0133 17.48C78.5066 16.64 78.2533 15.6867 78.2533 14.62C78.2533 13.5533 78.5066 12.6 79.0133 11.76C79.5199 10.92 80.2199 10.2667 81.1133 9.8C82.0199 9.32 83.0399 9.08 84.1733 9.08C85.3066 9.08 86.3199 9.32 87.2133 9.8C88.1066 10.2667 88.8066 10.92 89.3133 11.76C89.8199 12.6 90.0733 13.5533 90.0733 14.62C90.0733 15.6867 89.8199 16.64 89.3133 17.48C88.8066 18.32 88.1066 18.98 87.2133 19.46C86.3199 19.9267 85.3066 20.16 84.1733 20.16ZM84.1733 17.6C84.9733 17.6 85.6266 17.3333 86.1333 16.8C86.6533 16.2533 86.9133 15.5267 86.9133 14.62C86.9133 13.7133 86.6533 12.9933 86.1333 12.46C85.6266 11.9133 84.9733 11.64 84.1733 11.64C83.3733 11.64 82.7133 11.9133 82.1933 12.46C81.6733 12.9933 81.4133 13.7133 81.4133 14.62C81.4133 15.5267 81.6733 16.2533 82.1933 16.8C82.7133 17.3333 83.3733 17.6 84.1733 17.6ZM109.146 9.24L105.246 20H102.246L99.8258 13.32L97.3258 20H94.3258L90.4458 9.24H93.3858L95.9258 16.52L98.5658 9.24H101.206L103.766 16.52L106.386 9.24H109.146Z" fill="url(#paint2_linear_110_86)"/>
<defs>
<linearGradient id="paint0_linear_110_86" x1="3.08855" y1="1.66872" x2="6.48864" y2="21.221" gradientUnits="userSpaceOnUse">
<stop stop-color="#E33FD3"/>
<stop offset="1" stop-color="#6633F5"/>
</linearGradient>
<linearGradient id="paint1_linear_110_86" x1="14.6502" y1="1.04063" x2="18.1042" y2="20.9033" gradientUnits="userSpaceOnUse">
<stop stop-color="#E33FD3"/>
<stop offset="1" stop-color="#6633F5"/>
</linearGradient>
<linearGradient id="paint2_linear_110_86" x1="32.7407" y1="8" x2="112.241" y2="22.5" gradientUnits="userSpaceOnUse">
<stop stop-color="#9037E9"/>
<stop offset="1" stop-color="#6633F5"/>
</linearGradient>
</defs>
</svg>
